Coordinates
version=1
nRows=14
nColumns=36
inDegrees=yes

Units are S.I. units (second, meters, Newtons, ...)
If the header above contains a line with 'inDegrees', this indicates whether rotational values are in degrees (yes) or radians (no).

endheader
time	pelvis_tilt	pelvis_list	pelvis_rotation	pelvis_tx	pelvis_ty	pelvis_tz	hip_flexion_r	hip_adduction_r	hip_rotation_r	knee_angle_r	knee_angle_r_beta	ankle_angle_r	subtalar_angle_r	mtp_angle_r	hip_flexion_l	hip_adduction_l	hip_rotation_l	knee_angle_l	knee_angle_l_beta	ankle_angle_l	subtalar_angle_l	mtp_angle_l	lumbar_extension	lumbar_bending	lumbar_rotation	arm_flex_r	arm_add_r	arm_rot_r	elbow_flex_r	pro_sup_r	arm_flex_l	arm_add_l	arm_rot_l	elbow_flex_l	pro_sup_l
     22.48333330	    -27.71592579	     -4.16209471	      1.21392993	      0.06075796	      0.96531950	     -0.04589115	     42.08522831	      0.12431305	     -1.76880010	     22.34779325	      0.39004257	      8.60262772	     -5.20939418	     -7.49999987	     50.47391746	    -12.30832847	     -4.43864681	     34.01547495	      0.59368203	     15.11982196	      8.11027842	     -7.49999987	    -60.10567984	      1.74307308	     11.10451109	     16.54706954	    -21.21674003	    -11.77066859	     64.93110472	     96.44107108	     33.87899266	    -15.61282203	      8.53435535	     51.87485489	     87.62393924
     22.50000000	    -28.38201254	     -4.40175737	      0.86156580	      0.05262850	      0.96792326	     -0.05148910	     43.81705691	      0.29153100	     -2.27604307	     23.63391158	      0.41248957	      9.26904741	     -4.46755980	     -7.49999987	     52.06455200	    -12.48430822	     -3.80074084	     34.82701415	      0.60784607	     15.10160855	      7.65433304	     -7.49999987	    -56.56532017	      1.85134336	     10.67000396	     15.04244103	    -20.77038965	    -11.31610389	     65.43332614	     94.60611511	     31.41520099	    -16.49414571	      9.14944340	     52.95257690	     86.46961498
     22.51666670	    -28.95848098	     -4.46154655	      0.56710507	      0.05142846	      0.96706662	     -0.05154084	     45.20490216	      0.35005929	     -2.55104958	     24.48565794	      0.42735535	      9.63675136	     -3.86498216	     -7.49999987	     53.19444128	    -12.45602524	     -3.35677775	     35.06563648	      0.61201081	     14.69360600	      6.97376880	     -7.49999987	    -53.20264246	      1.83992865	     10.10222822	     13.39556325	    -20.64493670	    -10.18342459	     65.77156587	     90.04230220	     28.61114735	    -17.22262558	      9.20664680	     54.40416587	     83.37221982
     22.53333330	    -27.90421586	     -4.67744080	      0.26830103	      0.06467446	      0.96955432	     -0.05701075	     43.62306855	      0.81760306	     -2.31455912	     23.44312816	      0.40915977	      9.45673017	     -3.81262362	     -7.49999987	     51.74507088	    -12.48760135	     -2.82530059	     34.58186726	      0.60356745	     14.72570437	      6.71324524	     -7.49999987	    -51.17974105	      1.97978750	      9.89806180	     12.12548056	    -20.35267214	     -9.05960044	     64.58951144	     91.57362571	     26.03751020	    -17.03794016	      9.13057024	     54.04804291	     86.92278547
     22.55000000	    -27.21721059	     -4.78322562	      0.15224891	      0.07261690	      0.97275588	     -0.05182656	     42.20459209	      1.07042128	     -2.17327590	     22.41293042	      0.39117943	      9.31716308	     -3.55419155	     -7.49999987	     50.39410417	    -12.47715068	     -2.51753844	     33.90812787	      0.59180847	     14.92218534	      6.61803970	     -7.49999987	    -49.29779577	      2.11494429	      9.93154005	     10.50860920	    -19.72609252	     -8.93539011	     64.17458913	     91.57764468	     23.98123867	    -16.66915596	      9.31916874	     53.78688385	     87.01840582
     22.56666670	    -26.54446200	     -4.98541378	     -0.00348021	      0.07460137	      0.97366517	     -0.05162313	     41.07600840	      1.40655611	     -2.10148293	     21.90401157	      0.38229712	      9.19930704	     -3.46094013	     -7.49999987	     49.25160638	    -12.59555635	     -2.01607273	     33.57579591	      0.58600819	     15.26750806	      6.24933253	     -7.49999987	    -47.60325567	      2.50271022	      9.84756746	      9.47748189	    -19.03183997	     -8.71316973	     63.60402258	     90.68780458	     22.23629133	    -16.23858965	      9.12547836	     53.33264675	     86.29575001
     22.58333330	    -25.88039396	     -5.16443382	      0.06189183	      0.07353133	      0.97996348	     -0.05140441	     39.87156417	      1.59205939	     -2.17554622	     20.90154560	      0.36480079	      8.76999285	     -3.43734968	     -7.49999987	     48.13271910	    -12.49325033	     -1.36080592	     32.90976175	      0.57438370	     15.03321201	      5.78747700	     -7.49999987	    -45.63824376	      3.02742021	      9.48064419	      8.63298293	    -18.54436282	     -7.92648771	     62.90388662	     88.40126191	     20.68667747	    -15.94070201	      9.01043701	     53.10338382	     84.63180435
     22.60000000	    -24.20035008	     -5.16778504	     -0.07293545	      0.08716053	      0.98362518	     -0.05726370	     37.12650693	      1.90271810	     -1.43949162	     19.37166377	      0.33809931	      8.01035673	     -3.88779119	     -7.49999987	     45.28941374	    -12.33681591	     -1.03857786	     31.87895862	      0.55639279	     14.94621383	      5.22336964	     -7.49999987	    -44.34556814	      3.25490424	      9.34380977	      7.64943061	    -18.06297676	     -7.62812571	     61.73040265	     89.00103359	     19.40233580	    -15.39233435	      9.38553366	     51.90649850	     85.30864529
     22.61666670	    -21.31101420	     -5.19639712	     -0.04182980	      0.10995921	      0.99127034	     -0.07055024	     31.84892846	      2.09180442	     -0.43651300	     16.05729243	      0.28025262	      6.37514272	     -4.49489592	     -7.49999987	     40.14047840	    -11.91085024	     -0.64860110	     29.72393068	      0.51878046	     14.66425787	      4.37781796	     -7.49999987	    -44.05003826	      3.84845187	      9.16655918	      6.36549795	    -17.69906329	     -7.45865158	     59.59340159	     90.02940443	     17.56374840	    -14.35929243	      9.69124590	     49.77233002	     86.34452721
     22.63333330	    -18.36599398	     -4.93671516	      0.01349150	      0.12418641	      1.00194919	     -0.07540230	     26.24000522	      1.81052494	      0.30950714	     12.58525910	      0.21965421	      4.92380911	     -4.17867366	     -7.49999987	     34.50836340	    -11.23926900	     -0.40966180	     27.13577320	      0.47360859	     14.19171276	      3.55161361	     -7.49999987	    -43.55409585	      4.39564273	      8.74255802	      5.06743265	    -17.32668246	     -7.37221398	     57.17338019	     89.95378912	     15.70965677	    -13.33922802	      9.76995640	     47.88402729	     86.46791893
     22.65000000	    -16.58457856	     -4.68630510	     -0.07748233	      0.13189998	      1.00531438	     -0.06887421	     22.39797246	      1.61746335	      0.85503681	     10.18652606	      0.17778842	      4.48102293	     -3.77737725	     -7.49999987	     30.75191906	    -10.85209575	     -0.49970765	     25.53793150	      0.44572099	     14.36001043	      3.15382444	     -7.49999987	    -42.29480508	      4.53874970	      8.46052574	      3.71342906	    -16.91778275	     -7.37337239	     55.01568572	     90.96171490	     14.25865687	    -12.84482903	      9.98429365	     46.87720031	     87.50130902
     22.66666670	    -16.15223699	     -4.64891046	     -0.26057065	      0.13315847	      1.00125158	     -0.06908024	     21.07803059	      1.60195265	      1.09024739	      9.54884203	      0.16665873	      4.92377465	     -3.85715536	     -7.49999987	     29.36752869	    -10.78430934	     -0.50109203	     25.21934704	      0.44016064	     14.85594472	      2.93854495	     -7.49999987	    -39.97440799	      4.84468934	      8.29186946	      1.96591751	    -16.66787751	     -7.22635438	     54.54144405	     91.11819676	     12.55127423	    -12.63158945	     10.23081627	     46.71877588	     87.66505996
     22.68333330	    -15.17824189	     -4.46508869	     -0.28911937	      0.14449786	      1.00980987	     -0.07411121	     18.65273873	      1.34612112	      1.42697644	      7.82627600	      0.13659428	      4.60694812	     -3.58326911	     -7.49999987	     27.06038676	    -10.32298069	     -0.10761745	     24.26664223	      0.42353281	     14.50871425	      2.01013185	     -7.49999987	    -38.12485733	      4.96861777	      7.85606870	      1.24036195	    -16.26918606	     -7.07785590	     52.11440621	     91.49675230	     11.15625126	    -12.17278573	      9.82692097	     45.89992234	     88.20061302
     22.70000000	    -14.98339520	     -4.26503100	     -0.38583844	      0.14623529	      1.01021180	     -0.07349945	     17.79438007	      1.09589736	      1.56524672	      7.34890137	      0.12826253	      4.97698670	     -3.45887552	     -7.49999987	     26.07122620	     -9.97581307	      0.02222982	     23.93512837	      0.41774680	     14.59094753	      1.64260439	     -7.49999987	    -36.03858841	      5.02670834	      7.54872015	      0.02491247	    -16.01707803	     -7.05624617	     51.54815894	     91.42813735	      9.90501841	    -12.10471633	      9.94813303	     45.74765554	     88.22701148
